<svg version="1.1" id="Layer_1" xmlns="http://www.w3.org/2000/svg" xmlns:xlink="http://www.w3.org/1999/xlink" x="0px" y="0px"
	 viewBox="0 0 367.7 123" style="enable-background:new 0 0 367.7 123;" xml:space="preserve">
<style type="text/css">
	.st0{fill:#A74475;}
	.st1{fill:none;stroke:#A74475;stroke-width:0.544;}
	.st2{clip-path:url(#SVGID_2_);}
	.st3{fill:#FDF068;}
	.st4{fill:none;stroke:#FDF068;stroke-width:1.304;stroke-miterlimit:11;}
</style>
<g>
	<path class="st0" d="M294.6,120.8c-2.6,2.6-6.9,2.6-9.5,0l-54.5-54.5c-2.6-2.6-2.6-6.9,0-9.5l54.5-54.5c2.6-2.6,6.8-2.6,9.5,0
		l54.5,54.5c2.6,2.6,2.6,6.8,0,9.5L294.6,120.8z"/>
	<path class="st1" d="M294.6,120.8c-2.6,2.6-6.9,2.6-9.5,0l-54.5-54.5c-2.6-2.6-2.6-6.9,0-9.5l54.5-54.5c2.6-2.6,6.8-2.6,9.5,0
		l54.5,54.5c2.6,2.6,2.6,6.8,0,9.5L294.6,120.8z"/>
	<g>
		<defs>
			<rect id="SVGID_1_" x="236.5" y="18.9" width="114.1" height="91.3"/>
		</defs>
		<clipPath id="SVGID_2_">
			<use xlink:href="#SVGID_1_"  style="overflow:visible;"/>
		</clipPath>
		<g class="st2">
			<defs>
				<rect id="SVGID_3_" x="236.5" y="18.9" width="114.1" height="91.3"/>
			</defs>
			<clipPath id="SVGID_4_">
				<use xlink:href="#SVGID_3_"  style="overflow:visible;"/>
			</clipPath>
			<g style="clip-path:url(#SVGID_4_);">
				
					<image style="overflow:visible;" width="210" height="168" xlink:href="9733DF97EDDECA0C.png"  transform="matrix(0.5435 0 0 0.5435 236.4863 18.9414)">
				</image>
			</g>
		</g>
	</g>
	<path class="st3" d="M254.5,89.8c0,2.7-1.7,4.1-5,4.1c-3.3,0-4.9-1.4-4.9-4.1V30.8c0-2.7,1.7-4.1,5.2-4.1c3.2,0,4.7,1.4,4.7,4.1
		V89.8z"/>
	<path class="st4" d="M254.5,89.8c0,2.7-1.7,4.1-5,4.1c-3.3,0-4.9-1.4-4.9-4.1V30.8c0-2.7,1.7-4.1,5.2-4.1c3.2,0,4.7,1.4,4.7,4.1
		V89.8z"/>
	<path class="st3" d="M342.5,76.3c0,7.4-4,12.5-11.9,15.2l5,2.9c0.6,0.3,1.1,0.8,1.5,1.5c0.4,0.7,0.6,1.4,0.6,2
		c0,1.1-0.5,2.1-1.4,2.9c-0.9,0.8-2,1.2-3.2,1.2c-0.6,0-1.4-0.2-2.4-0.7l-13.8-8.2h-27.8c-16.9,0-25.4-5.6-25.4-16.8V44.1
		c0-11.2,8.4-16.8,25.3-16.8h27.6c17.2,0,25.9,5.6,25.9,16.7V76.3z M332.5,43.8c0-5.8-6.2-8.7-18.6-8.7h-22.1
		c-12.1,0-18.2,2.9-18.2,8.7v32.7c0,6,6.1,9,18.2,9h26.4c9.5,0,14.3-3,14.3-8.9V43.8z"/>
	<path class="st4" d="M342.5,76.3c0,7.4-4,12.5-11.9,15.2l5,2.9c0.6,0.3,1.1,0.8,1.5,1.5c0.4,0.7,0.6,1.4,0.6,2
		c0,1.1-0.5,2.1-1.4,2.9c-0.9,0.8-2,1.2-3.2,1.2c-0.6,0-1.4-0.2-2.4-0.7l-13.8-8.2h-27.8c-16.9,0-25.4-5.6-25.4-16.8V44.1
		c0-11.2,8.4-16.8,25.3-16.8h27.6c17.2,0,25.9,5.6,25.9,16.7V76.3z M332.5,43.8c0-5.8-6.2-8.7-18.6-8.7h-22.1
		c-12.1,0-18.2,2.9-18.2,8.7v32.7c0,6,6.1,9,18.2,9h26.4c9.5,0,14.3-3,14.3-8.9V43.8z"/>
	<path class="st0" d="M43.4,48c0,6-4.3,9-13,9H14.1c-9.2,0-13.8-2.9-13.8-8.6v-4c0-6,4.5-9,13.5-9h24.3c-0.4-3-2.7-4.5-6.8-4.5h-6.8
		c-1.3,0-2-0.8-2-2.4c0-1.5,0.7-2.2,2-2.2h5.9c8.7,0,13,3.1,13,9.2V48z M38.1,40.1H12.5c-4.4,0-6.5,1.4-6.5,4.1v4.2
		c0,2.6,2.3,3.9,7,3.9h18.4c4.5,0,6.8-2,6.8-5.9V40.1z"/>
	<path class="st1" d="M43.4,48c0,6-4.3,9-13,9H14.1c-9.2,0-13.8-2.9-13.8-8.6v-4c0-6,4.5-9,13.5-9h24.3c-0.4-3-2.7-4.5-6.8-4.5h-6.8
		c-1.3,0-2-0.8-2-2.4c0-1.5,0.7-2.2,2-2.2h5.9c8.7,0,13,3.1,13,9.2V48z M38.1,40.1H12.5c-4.4,0-6.5,1.4-6.5,4.1v4.2
		c0,2.6,2.3,3.9,7,3.9h18.4c4.5,0,6.8-2,6.8-5.9V40.1z"/>
	<path class="st0" d="M70.2,56.9c-10.1,0-15.2-3-15.2-9.1V35.3c0-6,4.6-9,13.8-9h20.5c1.8,0,2.6,0.7,2.6,2.2c0,1.6-0.9,2.4-2.6,2.4
		H68c-5,0-7.5,1.4-7.5,4.2v12.5c0,3.1,2.8,4.6,8.6,4.6h20.1c1.6,0,2.4,0.8,2.4,2.5c0,1.5-0.8,2.2-2.4,2.2H70.2z"/>
	<path class="st1" d="M70.2,56.9c-10.1,0-15.2-3-15.2-9.1V35.3c0-6,4.6-9,13.8-9h20.5c1.8,0,2.6,0.7,2.6,2.2c0,1.6-0.9,2.4-2.6,2.4
		H68c-5,0-7.5,1.4-7.5,4.2v12.5c0,3.1,2.8,4.6,8.6,4.6h20.1c1.6,0,2.4,0.8,2.4,2.5c0,1.5-0.8,2.2-2.4,2.2H70.2z"/>
	<path class="st0" d="M108.4,30.9v23.9c0,1.6-0.9,2.5-2.7,2.5c-1.9,0-2.8-0.8-2.8-2.5V30.9h-2.8c-1.5,0-2.3-0.8-2.3-2.4
		c0-1.5,0.8-2.2,2.3-2.2h2.8V19c0-1.6,1-2.5,2.9-2.5c1.8,0,2.6,0.8,2.6,2.5v7.3h11.2c1.5,0,2.3,0.8,2.3,2.3c0,1.5-0.8,2.3-2.3,2.3
		H108.4z"/>
	<path class="st1" d="M108.4,30.9v23.9c0,1.6-0.9,2.5-2.7,2.5c-1.9,0-2.8-0.8-2.8-2.5V30.9h-2.8c-1.5,0-2.3-0.8-2.3-2.4
		c0-1.5,0.8-2.2,2.3-2.2h2.8V19c0-1.6,1-2.5,2.9-2.5c1.8,0,2.6,0.8,2.6,2.5v7.3h11.2c1.5,0,2.3,0.8,2.3,2.3c0,1.5-0.8,2.3-2.3,2.3
		H108.4z"/>
	<path class="st0" d="M133.6,21.9c0,2-1.3,2.9-3.9,2.9c-2.4,0-3.7-1-3.7-2.9c0-2,1.2-2.9,3.7-2.9C132.3,19,133.6,19.9,133.6,21.9
		 M132.6,54.8c0,1.6-0.9,2.5-2.7,2.5c-1.8,0-2.7-0.8-2.7-2.5V30.4c0-1.6,0.9-2.4,2.6-2.4c1.9,0,2.8,0.8,2.8,2.4V54.8z"/>
	<path class="st1" d="M133.6,21.9c0,2-1.3,2.9-3.9,2.9c-2.4,0-3.7-1-3.7-2.9c0-2,1.2-2.9,3.7-2.9C132.3,19,133.6,19.9,133.6,21.9z
		 M132.6,54.8c0,1.6-0.9,2.5-2.7,2.5c-1.8,0-2.7-0.8-2.7-2.5V30.4c0-1.6,0.9-2.4,2.6-2.4c1.9,0,2.8,0.8,2.8,2.4V54.8z"/>
	<path class="st0" d="M165.1,56c-0.7,0.8-1.4,1.3-2.2,1.3c-0.7,0-1.4-0.4-1.9-1.1l-20.8-26.6c-0.3-0.4-0.5-0.9-0.5-1.5
		c0-0.6,0.3-1.2,0.9-1.7c0.6-0.5,1.2-0.7,1.8-0.7c0.4,0,0.8,0.1,1.1,0.2c0.4,0.2,0.7,0.4,0.9,0.7L163,50.9l18.6-24.5
		c0.4-0.5,1-0.7,1.7-0.7c0.3,0,0.7,0,1.1,0.1c0.4,0.1,0.7,0.3,1,0.5c0.3,0.2,0.6,0.5,0.8,0.8c0.2,0.3,0.3,0.6,0.3,0.9
		c0,0.5-0.2,1-0.6,1.5L165.1,56z"/>
	<path class="st1" d="M165.1,56c-0.7,0.8-1.4,1.3-2.2,1.3c-0.7,0-1.4-0.4-1.9-1.1l-20.8-26.6c-0.3-0.4-0.5-0.9-0.5-1.5
		c0-0.6,0.3-1.2,0.9-1.7c0.6-0.5,1.2-0.7,1.8-0.7c0.4,0,0.8,0.1,1.1,0.2c0.4,0.2,0.7,0.4,0.9,0.7L163,50.9l18.6-24.5
		c0.4-0.5,1-0.7,1.7-0.7c0.3,0,0.7,0,1.1,0.1c0.4,0.1,0.7,0.3,1,0.5c0.3,0.2,0.6,0.5,0.8,0.8c0.2,0.3,0.3,0.6,0.3,0.9
		c0,0.5-0.2,1-0.6,1.5L165.1,56z"/>
	<path class="st0" d="M232.4,41.8c0,1.7-0.8,2.6-2.5,2.6h-32.9v3.8c0,2.7,2.9,4.1,8.6,4.1h6.1c1.6,0,2.4,0.8,2.4,2.3
		c0,1.6-0.8,2.4-2.4,2.4H207c-10.4,0-15.6-3.2-15.6-9.5V35.7c0-6.3,5.1-9.4,15.4-9.4h12.6c8.6,0,12.9,2.7,12.9,8.2V41.8z
		 M197.1,39.6h30V35c0-2.8-2.1-4.1-6.4-4.1h-15c-5.7,0-8.6,1.5-8.6,4.4V39.6z"/>
	<path class="st1" d="M232.4,41.8c0,1.7-0.8,2.6-2.5,2.6h-32.9v3.8c0,2.7,2.9,4.1,8.6,4.1h6.1c1.6,0,2.4,0.8,2.4,2.3
		c0,1.6-0.8,2.4-2.4,2.4H207c-10.4,0-15.6-3.2-15.6-9.5V35.7c0-6.3,5.1-9.4,15.4-9.4h12.6c8.6,0,12.9,2.7,12.9,8.2V41.8z
		 M197.1,39.6h30V35c0-2.8-2.1-4.1-6.4-4.1h-15c-5.7,0-8.6,1.5-8.6,4.4V39.6z"/>
	<path class="st0" d="M357,27.4h-2.6v7.2h-1.5v-7.2h-2.7v-1h6.8V27.4z M363.4,32.6l2.3-6.2h2v8.2h-1.3v-7.1l-2.6,7.1H363l-2.8-7.1
		v7.1h-1.3v-8.2h2L363.4,32.6z"/>
</g>
</svg>
